<svg width="27" height="27" viewBox="0 0 27 27" fill="none" xmlns="http://www.w3.org/2000/svg">
<path fill-rule="evenodd" clip-rule="evenodd" d="M15.0329 6.13637C14.0676 5.21013 12.5435 5.21013 11.5783 6.13637L6.44847 11.0587C6.32279 11.1793 6.23824 11.3364 6.20683 11.5077C5.59241 14.8584 5.54705 18.2886 6.07267 21.6543L6.19743 22.4532H9.49772V15.5661C9.49772 15.1068 9.87004 14.7345 10.3293 14.7345H16.2818C16.7411 14.7345 17.1134 15.1068 17.1134 15.5661V22.4532H20.4137L20.5385 21.6543C21.0641 18.2886 21.0187 14.8584 20.4043 11.5077C20.3729 11.3364 20.2884 11.1793 20.1627 11.0587L15.0329 6.13637ZM10.4267 4.9363C12.0355 3.39256 14.5756 3.39256 16.1844 4.9363L21.3142 9.85862C21.6918 10.221 21.9458 10.693 22.0402 11.2077C22.6884 14.7422 22.7362 18.3606 22.1817 21.9109L21.9813 23.1943C21.8984 23.7251 21.4413 24.1164 20.9041 24.1164H16.2818C15.8225 24.1164 15.4502 23.744 15.4502 23.2848V16.3977H11.1609V23.2848C11.1609 23.744 10.7886 24.1164 10.3293 24.1164H5.70705C5.16985 24.1164 4.71271 23.7251 4.62982 23.1943L4.42939 21.9109C3.87494 18.3606 3.92278 14.7422 4.57091 11.2077C4.6653 10.693 4.91931 10.221 5.29693 9.85862L10.4267 4.9363Z" fill="white"/>
</svg>
